<mxfile host="app.diagrams.net" modified="2023-05-18T07:43:55.948Z" agent="Mozilla/5.0 (Windows NT 10.0; Win64; x64; rv:109.0) Gecko/20100101 Firefox/113.0" etag="ZPvbEXe8wj1cUjhnFRYu" version="21.3.2" type="device">
  <diagram id="C5RBs43oDa-KdzZeNtuy" name="Page-1">
    <mxGraphModel dx="989" dy="539" grid="1" gridSize="10" guides="1" tooltips="1" connect="1" arrows="1" fold="1" page="1" pageScale="1" pageWidth="827" pageHeight="1169" math="0" shadow="0">
      <root>
        <mxCell id="WIyWlLk6GJQsqaUBKTNV-0" />
        <mxCell id="WIyWlLk6GJQsqaUBKTNV-1" parent="WIyWlLk6GJQsqaUBKTNV-0" />
        <mxCell id="Tn3Q-JOgf97j42v1SPCj-45" value="" style="rounded=0;whiteSpace=wrap;html=1;" vertex="1" parent="WIyWlLk6GJQsqaUBKTNV-1">
          <mxGeometry x="481" y="205" width="70" height="60" as="geometry" />
        </mxCell>
        <mxCell id="Tn3Q-JOgf97j42v1SPCj-21" value="1" style="rounded=0;orthogonalLoop=1;jettySize=auto;html=1;entryX=0;entryY=0.5;entryDx=0;entryDy=0;" edge="1" parent="WIyWlLk6GJQsqaUBKTNV-1" source="Tn3Q-JOgf97j42v1SPCj-0" target="Tn3Q-JOgf97j42v1SPCj-3">
          <mxGeometry relative="1" as="geometry" />
        </mxCell>
        <mxCell id="Tn3Q-JOgf97j42v1SPCj-0" value="Endpoint" style="ellipse;whiteSpace=wrap;html=1;fillColor=#fff2cc;strokeColor=#d6b656;" vertex="1" parent="WIyWlLk6GJQsqaUBKTNV-1">
          <mxGeometry x="70" y="100" width="80" height="40" as="geometry" />
        </mxCell>
        <mxCell id="Tn3Q-JOgf97j42v1SPCj-22" value="2" style="edgeStyle=orthogonalEdgeStyle;rounded=0;orthogonalLoop=1;jettySize=auto;html=1;" edge="1" parent="WIyWlLk6GJQsqaUBKTNV-1">
          <mxGeometry x="-0.3333" relative="1" as="geometry">
            <mxPoint x="270" y="170.02857142857135" as="sourcePoint" />
            <mxPoint x="300" y="170.02857142857135" as="targetPoint" />
            <mxPoint as="offset" />
          </mxGeometry>
        </mxCell>
        <mxCell id="Tn3Q-JOgf97j42v1SPCj-3" value="Log Monitoring Lackey" style="rounded=1;whiteSpace=wrap;html=1;fillColor=#dae8fc;strokeColor=#6c8ebf;" vertex="1" parent="WIyWlLk6GJQsqaUBKTNV-1">
          <mxGeometry x="180" y="150" width="90" height="40" as="geometry" />
        </mxCell>
        <mxCell id="Tn3Q-JOgf97j42v1SPCj-19" style="rounded=0;orthogonalLoop=1;jettySize=auto;html=1;" edge="1" parent="WIyWlLk6GJQsqaUBKTNV-1" source="Tn3Q-JOgf97j42v1SPCj-7" target="Tn3Q-JOgf97j42v1SPCj-3">
          <mxGeometry relative="1" as="geometry" />
        </mxCell>
        <mxCell id="Tn3Q-JOgf97j42v1SPCj-31" value="1" style="edgeLabel;html=1;align=center;verticalAlign=middle;resizable=0;points=[];" vertex="1" connectable="0" parent="Tn3Q-JOgf97j42v1SPCj-19">
          <mxGeometry x="-0.5778" relative="1" as="geometry">
            <mxPoint as="offset" />
          </mxGeometry>
        </mxCell>
        <mxCell id="Tn3Q-JOgf97j42v1SPCj-7" value="Endpoint" style="ellipse;whiteSpace=wrap;html=1;fillColor=#fff2cc;strokeColor=#d6b656;" vertex="1" parent="WIyWlLk6GJQsqaUBKTNV-1">
          <mxGeometry x="70" y="150" width="80" height="40" as="geometry" />
        </mxCell>
        <mxCell id="Tn3Q-JOgf97j42v1SPCj-20" style="rounded=0;orthogonalLoop=1;jettySize=auto;html=1;entryX=-0.011;entryY=0.633;entryDx=0;entryDy=0;entryPerimeter=0;" edge="1" parent="WIyWlLk6GJQsqaUBKTNV-1" source="Tn3Q-JOgf97j42v1SPCj-9" target="Tn3Q-JOgf97j42v1SPCj-3">
          <mxGeometry relative="1" as="geometry" />
        </mxCell>
        <mxCell id="Tn3Q-JOgf97j42v1SPCj-32" value="1" style="edgeLabel;html=1;align=center;verticalAlign=middle;resizable=0;points=[];" vertex="1" connectable="0" parent="Tn3Q-JOgf97j42v1SPCj-20">
          <mxGeometry x="0.177" y="1" relative="1" as="geometry">
            <mxPoint as="offset" />
          </mxGeometry>
        </mxCell>
        <mxCell id="Tn3Q-JOgf97j42v1SPCj-9" value="Endpoint" style="ellipse;whiteSpace=wrap;html=1;fillColor=#fff2cc;strokeColor=#d6b656;" vertex="1" parent="WIyWlLk6GJQsqaUBKTNV-1">
          <mxGeometry x="70" y="200" width="80" height="40" as="geometry" />
        </mxCell>
        <mxCell id="Tn3Q-JOgf97j42v1SPCj-23" style="edgeStyle=orthogonalEdgeStyle;rounded=0;orthogonalLoop=1;jettySize=auto;html=1;entryX=0;entryY=0.5;entryDx=0;entryDy=0;" edge="1" parent="WIyWlLk6GJQsqaUBKTNV-1" source="Tn3Q-JOgf97j42v1SPCj-10" target="Tn3Q-JOgf97j42v1SPCj-15">
          <mxGeometry relative="1" as="geometry" />
        </mxCell>
        <mxCell id="Tn3Q-JOgf97j42v1SPCj-38" value="&lt;div&gt;3&lt;/div&gt;&lt;div&gt;6&lt;br&gt;&lt;/div&gt;" style="edgeLabel;html=1;align=center;verticalAlign=middle;resizable=0;points=[];" vertex="1" connectable="0" parent="Tn3Q-JOgf97j42v1SPCj-23">
          <mxGeometry x="-0.252" relative="1" as="geometry">
            <mxPoint as="offset" />
          </mxGeometry>
        </mxCell>
        <mxCell id="Tn3Q-JOgf97j42v1SPCj-10" value="Manager" style="rounded=1;whiteSpace=wrap;html=1;fillColor=#dae8fc;strokeColor=#6c8ebf;" vertex="1" parent="WIyWlLk6GJQsqaUBKTNV-1">
          <mxGeometry x="300" y="150" width="90" height="40" as="geometry" />
        </mxCell>
        <mxCell id="Tn3Q-JOgf97j42v1SPCj-30" style="edgeStyle=orthogonalEdgeStyle;rounded=0;orthogonalLoop=1;jettySize=auto;html=1;endArrow=classic;endFill=1;startArrow=classic;startFill=1;" edge="1" parent="WIyWlLk6GJQsqaUBKTNV-1" source="Tn3Q-JOgf97j42v1SPCj-11" target="Tn3Q-JOgf97j42v1SPCj-10">
          <mxGeometry relative="1" as="geometry" />
        </mxCell>
        <mxCell id="Tn3Q-JOgf97j42v1SPCj-36" value="5" style="edgeLabel;html=1;align=center;verticalAlign=middle;resizable=0;points=[];" vertex="1" connectable="0" parent="Tn3Q-JOgf97j42v1SPCj-30">
          <mxGeometry x="-0.2667" relative="1" as="geometry">
            <mxPoint x="7" y="-5" as="offset" />
          </mxGeometry>
        </mxCell>
        <mxCell id="Tn3Q-JOgf97j42v1SPCj-11" value="Correlator" style="rounded=1;whiteSpace=wrap;html=1;fillColor=#dae8fc;strokeColor=#6c8ebf;" vertex="1" parent="WIyWlLk6GJQsqaUBKTNV-1">
          <mxGeometry x="300" y="70" width="90" height="40" as="geometry" />
        </mxCell>
        <mxCell id="Tn3Q-JOgf97j42v1SPCj-28" style="rounded=0;orthogonalLoop=1;jettySize=auto;html=1;" edge="1" parent="WIyWlLk6GJQsqaUBKTNV-1" source="Tn3Q-JOgf97j42v1SPCj-12">
          <mxGeometry relative="1" as="geometry">
            <mxPoint x="345" y="190" as="targetPoint" />
          </mxGeometry>
        </mxCell>
        <mxCell id="Tn3Q-JOgf97j42v1SPCj-34" value="a" style="edgeLabel;html=1;align=center;verticalAlign=middle;resizable=0;points=[];" vertex="1" connectable="0" parent="Tn3Q-JOgf97j42v1SPCj-28">
          <mxGeometry x="-0.4" y="-1" relative="1" as="geometry">
            <mxPoint x="-1" y="-4" as="offset" />
          </mxGeometry>
        </mxCell>
        <mxCell id="Tn3Q-JOgf97j42v1SPCj-12" value="Sensor IDS" style="rounded=1;whiteSpace=wrap;html=1;fillColor=#fff2cc;strokeColor=#d6b656;" vertex="1" parent="WIyWlLk6GJQsqaUBKTNV-1">
          <mxGeometry x="315" y="225" width="60" height="40" as="geometry" />
        </mxCell>
        <mxCell id="Tn3Q-JOgf97j42v1SPCj-27" style="rounded=0;orthogonalLoop=1;jettySize=auto;html=1;entryX=0.359;entryY=1.017;entryDx=0;entryDy=0;entryPerimeter=0;" edge="1" parent="WIyWlLk6GJQsqaUBKTNV-1" source="Tn3Q-JOgf97j42v1SPCj-13" target="Tn3Q-JOgf97j42v1SPCj-10">
          <mxGeometry relative="1" as="geometry" />
        </mxCell>
        <mxCell id="Tn3Q-JOgf97j42v1SPCj-33" value="a" style="edgeLabel;html=1;align=center;verticalAlign=middle;resizable=0;points=[];" vertex="1" connectable="0" parent="Tn3Q-JOgf97j42v1SPCj-27">
          <mxGeometry x="-0.1327" y="-2" relative="1" as="geometry">
            <mxPoint as="offset" />
          </mxGeometry>
        </mxCell>
        <mxCell id="Tn3Q-JOgf97j42v1SPCj-13" value="&lt;div&gt;Sensor&lt;/div&gt;&lt;div&gt;IDS&lt;br&gt;&lt;/div&gt;" style="rounded=1;whiteSpace=wrap;html=1;fillColor=#fff2cc;strokeColor=#d6b656;" vertex="1" parent="WIyWlLk6GJQsqaUBKTNV-1">
          <mxGeometry x="250" y="225" width="60" height="40" as="geometry" />
        </mxCell>
        <mxCell id="Tn3Q-JOgf97j42v1SPCj-29" style="rounded=0;orthogonalLoop=1;jettySize=auto;html=1;entryX=0.63;entryY=1.033;entryDx=0;entryDy=0;entryPerimeter=0;" edge="1" parent="WIyWlLk6GJQsqaUBKTNV-1" source="Tn3Q-JOgf97j42v1SPCj-14" target="Tn3Q-JOgf97j42v1SPCj-10">
          <mxGeometry relative="1" as="geometry" />
        </mxCell>
        <mxCell id="Tn3Q-JOgf97j42v1SPCj-35" value="a" style="edgeLabel;html=1;align=center;verticalAlign=middle;resizable=0;points=[];" vertex="1" connectable="0" parent="Tn3Q-JOgf97j42v1SPCj-29">
          <mxGeometry x="-0.3541" relative="1" as="geometry">
            <mxPoint as="offset" />
          </mxGeometry>
        </mxCell>
        <mxCell id="Tn3Q-JOgf97j42v1SPCj-14" value="Sensor IDS" style="rounded=1;whiteSpace=wrap;html=1;fillColor=#fff2cc;strokeColor=#d6b656;" vertex="1" parent="WIyWlLk6GJQsqaUBKTNV-1">
          <mxGeometry x="384" y="225" width="60" height="40" as="geometry" />
        </mxCell>
        <mxCell id="Tn3Q-JOgf97j42v1SPCj-26" style="edgeStyle=orthogonalEdgeStyle;rounded=0;orthogonalLoop=1;jettySize=auto;html=1;entryX=0.5;entryY=1;entryDx=0;entryDy=0;" edge="1" parent="WIyWlLk6GJQsqaUBKTNV-1" source="Tn3Q-JOgf97j42v1SPCj-15" target="Tn3Q-JOgf97j42v1SPCj-17">
          <mxGeometry relative="1" as="geometry" />
        </mxCell>
        <mxCell id="Tn3Q-JOgf97j42v1SPCj-39" value="7" style="edgeLabel;html=1;align=center;verticalAlign=middle;resizable=0;points=[];" vertex="1" connectable="0" parent="Tn3Q-JOgf97j42v1SPCj-26">
          <mxGeometry x="-0.3481" relative="1" as="geometry">
            <mxPoint as="offset" />
          </mxGeometry>
        </mxCell>
        <mxCell id="Tn3Q-JOgf97j42v1SPCj-15" value="Database" style="shape=datastore;whiteSpace=wrap;html=1;fillColor=#dae8fc;strokeColor=#6c8ebf;" vertex="1" parent="WIyWlLk6GJQsqaUBKTNV-1">
          <mxGeometry x="429" y="145" width="60" height="50" as="geometry" />
        </mxCell>
        <mxCell id="Tn3Q-JOgf97j42v1SPCj-17" value="&lt;font style=&quot;font-size: 9px;&quot;&gt;grafische Benutzeroberfläche&lt;/font&gt;" style="rounded=1;whiteSpace=wrap;html=1;fillColor=#dae8fc;strokeColor=#6c8ebf;" vertex="1" parent="WIyWlLk6GJQsqaUBKTNV-1">
          <mxGeometry x="414" y="70" width="90" height="40" as="geometry" />
        </mxCell>
        <mxCell id="Tn3Q-JOgf97j42v1SPCj-37" value="&lt;div&gt;4&lt;/div&gt;" style="edgeLabel;html=1;align=center;verticalAlign=middle;resizable=0;points=[];" vertex="1" connectable="0" parent="WIyWlLk6GJQsqaUBKTNV-1">
          <mxGeometry x="364" y="126.66666666666669" as="geometry">
            <mxPoint x="-12" y="8" as="offset" />
          </mxGeometry>
        </mxCell>
        <mxCell id="Tn3Q-JOgf97j42v1SPCj-41" value="&lt;font style=&quot;font-size: 8px;&quot;&gt;&lt;b&gt;&lt;font style=&quot;font-size: 8px;&quot;&gt;External Tools&lt;br&gt;&lt;/font&gt;&lt;/b&gt;&lt;/font&gt;" style="rounded=1;whiteSpace=wrap;html=1;fillColor=#fff2cc;strokeColor=#d6b656;" vertex="1" parent="WIyWlLk6GJQsqaUBKTNV-1">
          <mxGeometry x="486" y="211" width="60" height="20" as="geometry" />
        </mxCell>
        <mxCell id="Tn3Q-JOgf97j42v1SPCj-43" value="&lt;font style=&quot;font-size: 8px;&quot;&gt;&lt;b&gt;Preludes&lt;/b&gt;&lt;/font&gt;" style="rounded=1;whiteSpace=wrap;html=1;fillColor=#dae8fc;strokeColor=#6c8ebf;" vertex="1" parent="WIyWlLk6GJQsqaUBKTNV-1">
          <mxGeometry x="486" y="237" width="60" height="20" as="geometry" />
        </mxCell>
      </root>
    </mxGraphModel>
  </diagram>
</mxfile>
